<svg width="134" height="58" viewBox="0 0 134 58" fill="none" xmlns="http://www.w3.org/2000/svg">
<g clip-path="url(#clip0_999_179)">
<path d="M60.4698 0L58.3198 3.43C58.3198 3.43 56.5598 3.17 56.4298 4.7C56.2998 6.24 58.0498 6.28 58.0498 6.28V7.68H53.8298L53.3898 6.41C53.3898 6.41 54.6198 6.19 54.6198 4.74C54.6198 3.12 52.2498 3.51 52.2498 3.51C52.2498 3.51 48.6098 1.1 48.3398 1.45L51.8098 10.66H69.1898L72.6598 1.45C72.3998 1.1 68.7498 3.51 68.7498 3.51C68.7498 3.51 66.3798 3.11 66.3798 4.74C66.3798 6.19 67.6098 6.41 67.6098 6.41L67.1698 7.68H62.9598V6.28C62.9598 6.28 64.7198 6.24 64.5798 4.7C64.4498 3.16 62.6898 3.43 62.6898 3.43L60.5398 0H60.4598H60.4698Z" fill="#FBBA00"/>
<path d="M86.3895 0L84.2395 3.43C84.2395 3.43 82.4795 3.17 82.3495 4.7C82.2195 6.24 83.9695 6.28 83.9695 6.28V7.68H79.7595L79.3195 6.41C79.3195 6.41 80.5495 6.19 80.5495 4.74C80.5495 3.12 78.1795 3.51 78.1795 3.51C78.1795 3.51 74.5395 1.1 74.2695 1.45L77.7395 10.66H95.1195L98.5895 1.45C98.3295 1.1 94.6795 3.51 94.6795 3.51C94.6795 3.51 92.3095 3.12 92.3095 4.74C92.3095 6.19 93.5395 6.41 93.5395 6.41L93.0995 7.68H88.8895V6.28C88.8895 6.28 90.6495 6.24 90.5095 4.7C90.3795 3.16 88.6195 3.43 88.6195 3.43L86.4695 0L86.3895 0Z" fill="#FBBA00"/>
<path d="M112.3 0L110.15 3.43C110.15 3.43 108.39 3.17 108.26 4.7C108.13 6.24 109.88 6.28 109.88 6.28V7.68H105.67L105.23 6.41C105.23 6.41 106.46 6.19 106.46 4.74C106.46 3.12 104.09 3.51 104.09 3.51C104.09 3.51 100.45 1.1 100.18 1.45L103.65 10.66H121.03L124.5 1.45C124.24 1.1 120.59 3.51 120.59 3.51C120.59 3.51 118.22 3.12 118.22 4.74C118.22 6.19 119.45 6.41 119.45 6.41L119.01 7.68H114.8V6.28C114.8 6.28 116.56 6.24 116.42 4.7C116.29 3.16 114.53 3.43 114.53 3.43L112.38 0L112.3 0Z" fill="#FBBA00"/>
<path d="M0 35.5901H4.34V44.3301H13.01V35.5901H17.35V57.2201H13.01V47.7401H4.34V57.2201H0V35.5901Z" fill="#00468E"/>
<path d="M22.8297 45.6599C24.2197 44.6099 25.9897 43.9299 27.7597 43.9299C30.2097 43.9299 31.3497 44.7999 31.3497 47.3699H29.0597C27.3197 47.3699 25.2797 47.5199 23.6997 48.2999C22.1197 49.0699 20.9697 50.4699 20.9697 52.8499C20.9697 55.8899 23.7297 57.5899 26.5497 57.5899C28.4397 57.5899 30.5097 56.5999 31.4797 54.8299H31.5397C31.5697 55.3199 31.5697 56.3799 31.7297 57.2199H35.3797C35.2897 55.9799 35.2297 54.8699 35.1897 53.6599C35.1597 52.4799 35.1297 51.2799 35.1297 49.6599V47.6199C35.1297 42.9099 33.1197 40.8999 28.2497 40.8999C26.4797 40.8999 24.3197 41.3599 22.6997 42.1099L22.8197 45.6699L22.8297 45.6599ZM24.9397 52.5999C24.9397 50.1499 27.6997 49.8399 29.5597 49.8399H31.3597C31.3597 51.0799 31.1697 52.2299 30.4897 53.1199C29.8397 53.9899 28.8497 54.5499 27.5797 54.5499C26.0897 54.5499 24.9497 53.9599 24.9497 52.5999" fill="#00468E"/>
<path d="M43.4596 33.98H39.3096V57.22H43.4596V33.98Z" fill="#00468E"/>
<path d="M47.7698 41.2599H51.6398V43.4899H51.6998C52.9998 41.5399 54.8898 40.8899 56.4398 40.8899C58.6698 40.8899 60.2498 41.7299 61.1498 43.7099C62.1098 41.7899 64.1898 40.8899 66.1398 40.8899C70.0798 40.8899 71.1898 43.5899 71.1898 47.1499V57.2199H67.0398V47.7099C67.0398 46.2199 67.0398 44.1199 64.6498 44.1199C61.8898 44.1199 61.5498 47.3999 61.5498 49.4799V57.2199H57.3998V47.7099C57.3998 46.2199 57.3998 44.1199 55.0098 44.1199C52.2498 44.1199 51.9098 47.3999 51.9098 49.4799V57.2199H47.7598V41.2599H47.7698Z" fill="#00468E"/>
<path d="M84.8496 44.6099C83.5796 44.1799 82.6496 43.9299 81.1296 43.9299C80.0196 43.9299 78.6796 44.3299 78.6796 45.6999C78.6796 48.2399 85.8996 46.6299 85.8996 52.3899C85.8996 56.1099 82.5796 57.5999 79.2096 57.5999C77.6296 57.5999 76.0196 57.3199 74.4996 56.9199L74.7496 53.5099C76.0496 54.1599 77.4096 54.5599 78.8396 54.5599C79.8896 54.5599 81.5696 54.1599 81.5696 52.6099C81.5696 49.4799 74.3496 51.6199 74.3496 45.8599C74.3496 42.4199 77.3596 40.8999 80.6096 40.8999C82.5596 40.8999 83.8296 41.2099 85.1296 41.4899L84.8496 44.6199V44.6099Z" fill="#00468E"/>
<path d="M90.4899 44.3H87.4199V41.26H90.4899V38.07L94.6399 36.74V41.26H98.3299V44.3H94.6399V51.74C94.6399 53.1 95.0099 54.37 96.5899 54.37C97.3299 54.37 98.0499 54.22 98.4799 53.94L98.5999 57.22C97.7299 57.47 96.7699 57.59 95.5299 57.59C92.2799 57.59 90.4799 55.58 90.4799 52.42V44.3H90.4899Z" fill="#00468E"/>
<path d="M102.01 45.6599C103.4 44.6099 105.17 43.9299 106.94 43.9299C109.39 43.9299 110.53 44.7999 110.53 47.3699H108.24C106.51 47.3699 104.46 47.5199 102.88 48.2999C101.3 49.0699 100.15 50.4699 100.15 52.8499C100.15 55.8899 102.91 57.5899 105.73 57.5899C107.62 57.5899 109.69 56.5999 110.66 54.8299H110.72C110.75 55.3199 110.75 56.3799 110.91 57.2199H114.56C114.47 55.9799 114.41 54.8699 114.37 53.6599C114.34 52.4799 114.31 51.2799 114.31 49.6599V47.6199C114.31 42.9099 112.3 40.8999 107.43 40.8999C105.66 40.8999 103.5 41.3599 101.88 42.1099L102 45.6699L102.01 45.6599ZM104.12 52.5999C104.12 50.1499 106.88 49.8399 108.74 49.8399H110.54C110.54 51.0799 110.35 52.2299 109.67 53.1199C109.02 53.9899 108.03 54.5499 106.76 54.5499C105.27 54.5499 104.13 53.9599 104.13 52.5999" fill="#00468E"/>
<path d="M129.03 57.22H133.06V33.98H128.91V43.12H128.85C127.61 41.6 126.15 40.89 124.08 40.89C119.19 40.89 117.39 44.79 117.39 49.19C117.39 53.59 119.19 57.59 124.08 57.59C126.03 57.59 127.74 56.97 128.98 55.42H129.04V57.22H129.03ZM121.72 49.19C121.72 47.05 122.46 44.11 125.16 44.11C127.86 44.11 128.88 46.96 128.88 49.19C128.88 51.42 127.98 54.36 125.23 54.36C122.48 54.36 121.73 51.39 121.73 49.19" fill="#00468E"/>
<path d="M86.4199 33.94L76.5599 24.1C76.5599 24.1 76.3299 23.89 76.0199 23.49C74.8699 22.3 74.1699 20.68 74.1699 18.89C74.1699 15.28 77.0499 12.33 80.6399 12.24C80.7099 12.24 80.7699 12.24 80.8399 12.24C83.1799 12.09 84.9499 13.32 86.4199 14.51C87.8899 13.32 89.6499 12.09 91.9999 12.24C92.0699 12.24 92.1399 12.24 92.1999 12.24C95.7899 12.34 98.6699 15.28 98.6699 18.89C98.6699 20.68 97.9699 22.3 96.8199 23.49C96.5099 23.89 96.2799 24.1 96.2799 24.1L86.4199 33.94Z" fill="#D2091E"/>
<path d="M60.5 33.94L50.64 24.1C50.64 24.1 50.41 23.89 50.1 23.49C48.95 22.3 48.25 20.68 48.25 18.89C48.25 15.28 51.13 12.33 54.72 12.24C54.79 12.24 54.85 12.24 54.92 12.24C57.27 12.09 59.03 13.32 60.5 14.51C61.97 13.32 63.73 12.09 66.08 12.24C66.15 12.24 66.21 12.24 66.28 12.24C69.87 12.34 72.75 15.28 72.75 18.89C72.75 20.68 72.04 22.3 70.9 23.49C70.59 23.89 70.36 24.1 70.36 24.1L60.5 33.94Z" fill="#D2091E"/>
<path d="M112.34 33.94L102.48 24.1C102.48 24.1 102.25 23.89 101.94 23.49C100.79 22.3 100.09 20.68 100.09 18.89C100.09 15.28 102.97 12.33 106.56 12.24C106.63 12.24 106.69 12.24 106.76 12.24C109.11 12.09 110.87 13.32 112.34 14.51C113.81 13.32 115.57 12.09 117.92 12.24C117.99 12.24 118.05 12.24 118.12 12.24C121.71 12.34 124.59 15.28 124.59 18.89C124.59 20.68 123.89 22.3 122.74 23.49C122.43 23.89 122.2 24.1 122.2 24.1L112.34 33.94Z" fill="#D2091E"/>
</g>
<defs>
<clipPath id="clip0_999_179">
<rect width="133.06" height="57.59" fill="white"/>
</clipPath>
</defs>
</svg>
